<?xml version="1.0" standalone="no"?>
<!DOCTYPE svg PUBLIC "-//W3C//DTD SVG 20010904//EN"
 "http://www.w3.org/TR/2001/REC-SVG-20010904/DTD/svg10.dtd">
<svg version="1.0" xmlns="http://www.w3.org/2000/svg"
 width="2000.000000pt" height="1627.000000pt" viewBox="0 0 2000.000000 1627.000000"
 preserveAspectRatio="xMidYMid meet">

<g transform="translate(0.000000,1627.000000) scale(0.100000,-0.100000)"
fill="#000000" stroke="none">
<path d="M9855 12434 c-313 -23 -515 -63 -767 -150 -857 -298 -1584 -1000
-2134 -2059 -416 -802 -708 -1793 -809 -2754 -8 -79 -15 -145 -15 -146 0 -2
-33 9 -72 25 -158 60 -347 102 -544 120 -241 22 -502 -17 -709 -107 -306 -132
-520 -399 -616 -768 -34 -132 -59 -314 -59 -432 l0 -86 -75 -113 c-84 -126
-225 -392 -225 -424 0 -33 26 -75 55 -88 42 -19 70 -14 126 24 80 54 193 124
200 124 4 0 10 -16 13 -36 13 -67 75 -260 115 -354 l39 -95 -39 -72 c-21 -40
-57 -114 -80 -165 -46 -104 -46 -138 -3 -179 45 -42 84 -33 214 53 l115 75 40
-34 c97 -83 222 -176 368 -272 86 -57 157 -109 157 -115 0 -6 -12 -49 -25 -96
-29 -99 -23 -140 25 -165 51 -26 78 -18 181 51 l98 65 73 -40 c180 -98 527
-242 713 -295 249 -71 420 -91 652 -76 263 17 437 53 803 163 410 124 509 143
719 134 158 -7 299 -34 566 -109 651 -183 844 -218 1130 -204 222 11 412 49
843 172 398 112 559 144 737 144 185 0 264 -17 825 -184 277 -82 507 -118 765
-118 201 -1 300 14 520 77 186 54 421 148 636 253 l164 81 95 -65 c101 -68
129 -75 180 -49 48 25 54 66 25 165 -13 47 -25 90 -25 96 0 6 66 55 148 109
150 100 292 205 371 274 l45 38 115 -75 c131 -86 170 -95 215 -53 52 49 45 88
-59 293 l-64 127 28 63 c31 69 103 284 122 363 7 28 13 52 15 54 4 5 101 -54
192 -116 35 -24 74 -43 88 -43 55 0 104 47 104 101 0 30 -143 300 -225 424
l-72 110 -12 165 c-28 402 -133 676 -346 898 -186 195 -440 305 -768 333 -244
21 -558 -26 -804 -121 l-72 -28 -5 42 c-3 22 -15 120 -26 216 -148 1240 -582
2440 -1195 3305 -408 576 -862 987 -1375 1246 -390 197 -763 291 -1200 302
-91 3 -187 3 -215 1z m435 -209 c389 -47 766 -180 1102 -388 718 -444 1338
-1261 1754 -2309 248 -624 415 -1294 498 -1988 14 -118 28 -227 30 -241 5 -27
5 -27 -92 -38 -387 -47 -709 -216 -888 -467 -62 -86 -121 -217 -150 -331 -13
-53 -26 -98 -28 -100 -2 -2 -61 9 -132 24 -111 23 -152 27 -289 27 -250 0
-342 -32 -612 -211 -256 -170 -335 -199 -518 -190 -76 4 -164 18 -287 46 -328
76 -404 85 -673 86 -271 0 -325 -7 -665 -82 -412 -91 -499 -77 -820 137 -273
182 -364 214 -615 214 -137 0 -178 -4 -288 -27 -71 -15 -133 -25 -138 -22 -5
4 -9 16 -9 28 0 72 -84 287 -150 382 -178 259 -511 438 -898 485 l-103 12 6
72 c81 933 378 1980 784 2761 266 510 541 895 885 1241 505 504 1055 792 1674
874 174 23 454 25 622 5z m-4760 -4955 c119 -13 220 -32 220 -40 0 -4 -17 -11
-37 -15 -67 -12 -253 -76 -347 -118 -270 -123 -372 -211 -407 -352 -7 -27 -16
-54 -20 -59 -4 -4 -44 -23 -89 -41 -150 -62 -321 -167 -439 -269 -36 -31 -66
-54 -69 -51 -9 8 31 201 59 288 98 301 284 503 549 595 80 28 198 57 265 65
63 8 233 6 315 -3z m9375 -19 c203 -50 326 -113 444 -225 113 -109 178 -215
239 -388 27 -77 72 -272 72 -314 0 -9 -27 9 -67 46 -114 103 -285 210 -440
273 -101 42 -100 41 -108 84 -12 67 -57 143 -117 198 -99 92 -468 259 -640
290 -21 4 -38 11 -38 15 0 7 95 26 207 40 113 14 356 4 448 -19z m-8544 -181
c324 -33 597 -159 755 -350 60 -73 129 -215 154 -320 25 -107 27 -309 4 -431
-64 -340 -276 -698 -593 -1001 -125 -120 -159 -138 -227 -119 -59 16 -81 46
-130 176 -52 137 -87 192 -149 233 -25 17 -127 63 -226 103 -162 64 -187 78
-240 127 -40 36 -70 76 -92 121 l-32 66 -1 205 c-1 304 -7 315 -287 540 -128
103 -157 143 -157 220 0 60 34 126 84 162 22 16 95 56 161 88 317 154 640 213
976 180z m7637 -1 c212 -23 425 -84 617 -179 202 -99 250 -151 243 -262 -6
-77 -27 -104 -180 -228 -158 -128 -210 -184 -239 -258 -21 -52 -23 -74 -24
-257 0 -185 -2 -204 -23 -257 -26 -63 -96 -148 -153 -184 -21 -13 -114 -54
-206 -90 -251 -100 -285 -131 -354 -320 -21 -59 -46 -117 -54 -130 -25 -38
-63 -58 -114 -58 -61 -1 -102 26 -235 159 -508 505 -702 1134 -484 1570 71
142 164 241 308 328 229 139 570 202 898 166z m-9000 -626 c25 -45 71 -90 217
-210 61 -50 118 -100 128 -111 18 -20 18 -20 -35 -26 -29 -3 -105 -8 -168 -11
-284 -13 -617 -102 -879 -234 -34 -18 -65 -31 -66 -29 -2 2 26 46 63 98 77
109 265 303 367 378 68 51 313 182 338 182 8 0 23 -17 35 -37z m10170 -23
c153 -77 260 -155 392 -289 87 -88 225 -263 238 -301 2 -5 -43 12 -100 39
-290 136 -559 203 -889 220 -88 5 -162 11 -165 14 -5 5 65 69 216 194 52 43
111 102 130 130 19 29 40 52 47 53 6 0 65 -27 131 -60z m-7083 -215 c89 -23
187 -74 347 -182 180 -121 278 -168 399 -193 155 -32 242 -25 561 45 304 67
385 78 608 78 223 0 308 -11 607 -78 314 -70 407 -77 561 -46 119 25 224 76
405 197 262 177 328 199 559 191 123 -4 174 -11 263 -34 l110 -28 12 -102 c41
-349 194 -686 458 -1008 107 -130 307 -322 376 -360 49 -27 62 -30 144 -29 50
0 108 2 130 3 79 5 361 -93 605 -211 l145 -71 -125 -59 c-244 -117 -481 -202
-702 -250 -137 -30 -422 -32 -603 -4 -144 22 -394 85 -640 161 -554 172 -735
168 -1418 -25 -523 -148 -611 -164 -887 -164 -269 0 -377 19 -836 150 -733
208 -905 213 -1454 44 -261 -81 -509 -144 -655 -166 -181 -28 -466 -26 -603 4
-220 48 -470 137 -707 250 l-119 58 47 26 c143 80 385 178 577 233 102 29 123
33 156 23 67 -18 182 -6 242 27 67 36 256 216 363 345 273 330 427 664 472
1025 l12 100 65 18 c175 48 407 62 525 32z m-2976 -319 c-2 -2 -42 -32 -89
-67 -176 -129 -305 -253 -449 -428 -29 -37 -57 -67 -62 -69 -11 -4 -126 365
-116 374 60 50 455 168 627 187 54 6 94 7 89 3z m10027 -32 c124 -25 304 -81
409 -128 32 -15 60 -28 62 -30 9 -9 -105 -376 -117 -376 -3 0 -34 35 -68 79
-88 111 -301 315 -423 406 -57 43 -106 79 -109 82 -9 10 125 -8 246 -33z
m-9749 -101 c3 -113 34 -213 93 -300 17 -24 30 -46 30 -48 0 -2 -19 -6 -42
-10 -221 -36 -527 -147 -774 -281 -60 -32 -113 -61 -118 -63 -12 -5 59 103
127 194 130 171 390 401 597 528 41 26 77 47 80 47 3 0 6 -30 7 -67z m9312 21
c173 -105 373 -272 508 -424 78 -88 232 -300 218 -300 -4 0 -38 19 -78 42
-222 130 -596 269 -814 303 -24 4 -43 8 -43 10 0 1 16 29 35 61 19 32 44 81
54 109 21 57 46 209 37 231 -8 21 0 18 83 -32z m-9175 -591 c-109 -165 -227
-383 -275 -510 -13 -35 -27 -63 -31 -63 -24 0 -448 302 -448 319 0 12 266 137
373 176 104 37 300 89 391 104 4 0 0 -11 -10 -26z m386 -18 c126 -49 167 -71
184 -98 8 -12 30 -65 49 -117 19 -52 38 -103 42 -112 5 -13 -2 -19 -37 -28
-159 -43 -509 -197 -688 -303 -41 -25 -77 -44 -78 -42 -7 6 71 191 128 305 95
188 269 447 294 436 6 -2 54 -21 106 -41z m8355 -31 c79 -105 158 -231 217
-348 51 -101 142 -316 136 -321 -2 -2 -32 14 -68 36 -171 103 -540 266 -697
308 -24 7 -43 13 -43 14 0 1 20 56 44 122 33 89 53 126 74 144 23 19 242 115
274 120 3 1 32 -33 63 -75z m380 34 c66 -16 163 -45 215 -65 108 -40 370 -163
370 -173 0 -18 -424 -320 -449 -320 -4 0 -17 28 -30 63 -52 133 -165 344 -275
509 l-18 28 33 -6 c19 -4 88 -20 154 -36z"/>
<path d="M9804 9650 c-118 -14 -302 -64 -425 -116 -495 -209 -848 -638 -965
-1174 -29 -131 -27 -496 4 -636 138 -636 625 -1126 1246 -1254 241 -49 457
-48 693 6 615 139 1091 625 1224 1251 27 127 36 346 19 495 -76 699 -597 1267
-1293 1408 -118 24 -375 34 -503 20z m432 -205 c129 -23 254 -63 254 -82 0
-29 -94 -197 -151 -268 -193 -243 -476 -247 -673 -9 -53 64 -156 247 -156 277
0 19 119 58 245 81 110 20 369 20 481 1z m-862 -260 c117 -248 303 -419 499
-460 l27 -5 0 -282 0 -281 -189 -191 c-105 -105 -195 -204 -201 -220 -13 -36
2 -89 33 -111 12 -8 40 -15 62 -15 39 -1 45 4 218 181 l177 182 178 -182 c172
-177 178 -182 217 -181 22 0 50 7 62 15 31 22 46 75 33 111 -6 16 -96 115
-201 220 l-189 190 0 281 0 281 68 21 c186 57 347 214 461 450 22 46 41 87 43
93 10 28 221 -125 337 -244 200 -205 337 -471 387 -748 26 -144 24 -366 -4
-508 -57 -286 -186 -527 -391 -732 -381 -380 -912 -511 -1430 -354 -345 105
-663 374 -833 707 -57 111 -112 272 -135 399 -26 144 -23 383 6 523 65 308
227 587 458 788 63 54 239 178 252 177 3 -1 28 -48 55 -105z"/>
<path d="M7643 9350 c-120 -25 -232 -114 -286 -228 -30 -62 -32 -75 -32 -172
0 -97 2 -110 32 -172 125 -265 466 -315 668 -97 75 82 99 147 99 269 -1 123
-25 188 -101 270 -98 106 -249 158 -380 130z m199 -226 c88 -60 117 -187 65
-276 -36 -62 -95 -100 -161 -106 -72 -6 -121 12 -172 63 -83 83 -82 221 3 295
55 48 90 61 160 57 50 -2 71 -9 105 -33z"/>
<path d="M12199 9350 c-116 -21 -236 -115 -292 -230 -30 -60 -32 -72 -32 -170
0 -97 3 -110 32 -170 43 -89 111 -155 203 -199 69 -33 82 -36 165 -36 83 0 96
3 167 37 96 46 159 107 201 196 30 62 32 75 32 172 0 99 -2 110 -33 172 -44
90 -106 151 -195 193 -79 38 -167 50 -248 35z m193 -226 c124 -87 124 -262 0
-349 -39 -27 -52 -30 -116 -30 -62 0 -78 4 -114 27 -119 79 -129 258 -19 342
50 38 76 46 144 43 51 -2 71 -9 105 -33z"/>
<path d="M12190 5653 c-27 -26 -34 -47 -81 -255 -46 -203 -50 -231 -39 -258
16 -40 62 -64 105 -56 60 12 71 34 126 278 47 204 51 229 39 257 -25 62 -100
79 -150 34z"/>
<path d="M9514 5590 c-32 -13 -54 -50 -54 -90 0 -31 11 -49 75 -121 118 -132
139 -149 181 -149 50 0 94 47 94 100 0 34 -10 49 -97 145 -112 124 -139 139
-199 115z"/>
<path d="M10859 5501 c-22 -22 -29 -39 -29 -67 0 -32 14 -57 100 -170 55 -72
107 -135 116 -138 59 -23 125 10 140 69 9 37 -5 62 -104 193 -113 149 -162
174 -223 113z"/>
<path d="M8092 5405 c-24 -18 -41 -67 -34 -103 5 -26 359 -372 394 -385 14 -5
38 -4 60 3 58 17 85 84 55 136 -16 28 -336 338 -364 352 -31 17 -85 15 -111
-3z"/>
<path d="M11526 5049 c-18 -21 -26 -42 -26 -68 0 -33 13 -51 120 -174 66 -75
129 -141 139 -147 37 -19 81 -12 112 19 39 39 39 87 2 133 -82 100 -225 257
-239 262 -40 16 -82 6 -108 -25z"/>
<path d="M10323 4888 c-205 -168 -233 -197 -233 -241 0 -50 34 -87 86 -94 38
-5 45 -1 125 63 291 235 306 251 295 309 -9 45 -48 75 -97 75 -34 0 -54 -13
-176 -112z"/>
<path d="M7433 4960 c-12 -5 -31 -26 -41 -47 -42 -83 -212 -481 -212 -497 0
-50 51 -96 105 -96 51 0 80 46 189 298 58 134 106 250 106 258 0 24 -29 73
-49 84 -23 12 -68 12 -98 0z"/>
<path d="M9189 4871 c-50 -51 -42 -81 58 -218 47 -65 102 -140 121 -166 60
-84 125 -97 177 -35 30 35 32 72 6 114 -41 67 -220 302 -242 318 -37 26 -86
21 -120 -13z"/>
<path d="M12783 4648 c-67 -18 -96 -103 -50 -151 12 -13 93 -68 181 -122 163
-101 192 -111 242 -85 47 25 58 103 22 143 -22 23 -316 208 -348 219 -8 3 -29
1 -47 -4z"/>
</g>
</svg>
